<svg xmlns="http://www.w3.org/2000/svg" xmlns:xlink="http://www.w3.org/1999/xlink" viewBox="0 0 314.61 238.63"><defs><style>.cls-1{fill:url(#Безымянный_градиент_97);}.cls-2{fill:#fff;}.cls-3{fill:url(#Безымянный_градиент_93);}.cls-4{fill:#4122f2;}.cls-5{fill:url(#Безымянный_градиент_97-2);}.cls-6{fill:url(#Безымянный_градиент_97-3);}.cls-7{fill:url(#Безымянный_градиент_97-4);}.cls-8{fill:url(#Безымянный_градиент_97-5);}.cls-9{fill:url(#Безымянный_градиент_97-6);}.cls-10{fill:url(#Безымянный_градиент_97-7);}</style><linearGradient id="Безымянный_градиент_97" y1="119.31" x2="314.61" y2="119.31" gradientUnits="userSpaceOnUse"><stop offset="0" stop-color="#0086ff"/><stop offset="1" stop-color="#005fff"/></linearGradient><linearGradient id="Безымянный_градиент_93" x1="30.02" y1="119.3" x2="284.59" y2="119.3" gradientUnits="userSpaceOnUse"><stop offset="0" stop-color="#ffec55"/><stop offset="1" stop-color="#ff8715"/></linearGradient><linearGradient id="Безымянный_градиент_97-2" x1="23.09" y1="119.31" x2="291.52" y2="119.31" xlink:href="#Безымянный_градиент_97"/><linearGradient id="Безымянный_градиент_97-3" x1="56.87" y1="90.56" x2="128.29" y2="90.56" xlink:href="#Безымянный_градиент_97"/><linearGradient id="Безымянный_градиент_97-4" x1="208.49" y1="112.72" x2="235.56" y2="112.72" xlink:href="#Безымянный_градиент_97"/><linearGradient id="Безымянный_градиент_97-5" x1="230.66" y1="90.55" x2="257.72" y2="90.55" xlink:href="#Безымянный_градиент_97"/><linearGradient id="Безымянный_градиент_97-6" x1="186.35" y1="90.55" x2="213.39" y2="90.55" xlink:href="#Безымянный_градиент_97"/><linearGradient id="Безымянный_градиент_97-7" x1="208.49" y1="68.38" x2="235.56" y2="68.38" xlink:href="#Безымянный_градиент_97"/></defs><title>favicon</title><g id="Слой_2" data-name="Слой 2"><g id="Слой_1-2" data-name="Слой 1"><path class="cls-1" d="M57.4,238.63a53.25,53.25,0,0,1-20.3-4.09c-.05,0-.27-.11-.48-.2l-1-.36C19.41,227.33.17,211.14,0,171.46V171c0-.72,0-1.44.1-2.16L9,74.41c.05-.61.14-1.25.25-1.89A91,91,0,0,1,14.35,54.9,88,88,0,0,1,152.42,20.54h9.79A87.88,87.88,0,0,1,305.32,72.6l.05.29c.11.62.18,1.18.24,1.74l8.89,94.57c.07.72.11,1.45.11,2.17,0,2.23-.07,4.26-.19,6.19v.15c-1.94,35.32-20.24,50-35.24,56.18l-.83.32-.77.33a53.76,53.76,0,0,1-20.36,4.08c-17,0-32.91-7.84-48.74-23.94-.48-.49-1-1-1.43-1.61l-44.61-55.14H152.18L107.64,213c-.48.59-1,1.13-1.46,1.64C90.3,230.8,74.35,238.63,57.4,238.63Z"/><path class="cls-2" d="M57.4,227.08a41.77,41.77,0,0,1-15.92-3.22l-.64-.27-.94-.35c-18.74-7.67-28.24-25.09-28.35-51.82V171a9.94,9.94,0,0,1,0-1.09l8.93-94.46c0-.32.08-.64.13-1a79.77,79.77,0,0,1,4.41-15.34A76.48,76.48,0,0,1,148,32.08h18.55A76.34,76.34,0,0,1,294,74.59l.05.31c.05.29.09.58.12.88l8.89,94.5c0,.36.05.72.05,1.09,0,2-.06,3.84-.17,5.55a.81.81,0,0,1,0,.16c-1.29,23.52-10.74,39-28.08,46.12-.22.09-.45.18-.68.25l-.2.07-.43.21-.35.15a42.2,42.2,0,0,1-15.93,3.19c-13.71,0-27-6.7-40.5-20.48-.25-.26-.49-.53-.72-.8l-48.05-59.41H146.66l-48,59.38c-.24.29-.49.57-.75.83C84.35,220.38,71.1,227.08,57.4,227.08Z"/><path class="cls-2" d="M291.52,171.37c0,1.73,0,3.39-.17,5v.06c-1,19-7.92,30.76-20.92,36.07-.2.07-.43.16-.67.23l-.32.14-.64.3c-14.16,5.75-28.5.95-43.85-14.68l-.21-.26-51.28-63.4H141.15L89.68,198.5c-11.2,11.38-21.84,17-32.28,17a30.15,30.15,0,0,1-11.54-2.36l-.69-.3-.33-.14a6.59,6.59,0,0,1-.67-.23c-14.11-5.77-21-19.21-21.08-41.14V171L32,76.58a66.46,66.46,0,0,1,3.76-13.09,65,65,0,0,1,84.58-35.61,64,64,0,0,1,22.88,15.75h28.13a64,64,0,0,1,22.88-15.75,64.76,64.76,0,0,1,88.32,48.7l.05.28,1.68,17.94v0Z"/><path class="cls-3" d="M281.63,140.05c.05.47.1.93.14,1.39s.14.9.19,1.36C281.84,141.9,281.73,141,281.63,140.05Zm.14,1.39c0-.46-.09-.92-.14-1.39l-.2-2-.21-2.22-.05-.65-5.42-57.52a57.91,57.91,0,0,0-78.9-43.36,57.21,57.21,0,0,0-21.36,15.1l-1,1.16H140.18l-1.06-1.16A57.91,57.91,0,0,0,42.23,66.1a55.74,55.74,0,0,0-3.37,11.56L30,171.5c.11,19,5.42,30,16.78,34.59l.26.1c.18.06.37.11.53.18l.9.42c11.31,4.59,22.81.46,36.14-13l53.2-65.85h38.95L230,193.76c13.33,13.51,24.8,17.62,36.16,13l.67-.32c.37-.14.56-.19.72-.25l.28-.1c11.33-4.62,16.67-15.61,16.76-34.59ZM128.29,95.21a7.58,7.58,0,0,1-7.6,7.6H104.85v15.84a7.62,7.62,0,0,1-7.59,7.62H87.91a7.62,7.62,0,0,1-7.58-7.62V102.81H64.47a7.62,7.62,0,0,1-7.6-7.6v-9.3a7.61,7.61,0,0,1,7.6-7.6H80.33V62.45a7.62,7.62,0,0,1,7.58-7.6h9.32a7.62,7.62,0,0,1,7.62,7.6V78.31h15.84a7.62,7.62,0,0,1,7.6,7.6ZM222,54.85a13.53,13.53,0,1,1-13.53,13.53A13.57,13.57,0,0,1,222,54.85Zm-35.68,35.7a13.52,13.52,0,1,1,13.51,13.53A13.55,13.55,0,0,1,186.36,90.55ZM222,126.25a13.54,13.54,0,1,1,13.53-13.53A13.55,13.55,0,0,1,222,126.25Zm22.14-22.17a13.53,13.53,0,1,1,13.55-13.53A13.55,13.55,0,0,1,244.18,104.08Z"/><path class="cls-4" d="M281.41,138.05l.14,1.47.07.53Zm.21,2c.09.93.21,1.85.33,2.75,0,.33.09.65.13,1,.14,1,.3,2.08.49,3.12C282.2,144.63,281.88,142.34,281.62,140.05Zm-.07-.53.07.53-.21-2Zm-.14-1.47.14,1.47.07.53Z"/><path class="cls-5" d="M284.31,94.84v0l-1.68-17.94-.05-.28a64.76,64.76,0,0,0-88.32-48.7,64,64,0,0,0-22.88,15.75H143.25a64,64,0,0,0-22.88-15.75A65,65,0,0,0,35.79,63.49,66.46,66.46,0,0,0,32,76.58L23.09,171v.33c.09,21.93,7,35.37,21.08,41.14a6.59,6.59,0,0,0,.67.23l.33.14.69.3a30.15,30.15,0,0,0,11.54,2.36c10.44,0,21.08-5.66,32.28-17l51.47-63.66h32.31l51.28,63.4.21.26c15.35,15.63,29.69,20.43,43.85,14.68l.64-.3.32-.14c.24-.07.47-.16.67-.23,13-5.31,19.89-17.11,20.92-36.07v-.06c.12-1.62.17-3.28.17-5ZM267.83,206.09l-.28.1c-.16.06-.35.11-.72.25l-.67.32c-11.36,4.62-22.83.51-36.16-13l-53.22-65.85H137.83l-53.2,65.85c-13.33,13.49-24.83,17.62-36.14,13l-.9-.42c-.16-.07-.35-.12-.53-.18l-.26-.1C35.44,201.47,30.13,190.48,30,171.5l8.84-93.84A55.74,55.74,0,0,1,42.23,66.1a57.91,57.91,0,0,1,96.89-16.7l1.06,1.16h34.27l1-1.16a57.21,57.21,0,0,1,21.36-15.1,57.91,57.91,0,0,1,78.9,43.36l5.42,57.52.05.65.21,2.22.2,2c.1.93.21,1.85.33,2.75,0-.46-.12-.9-.19-1.36l2.82,30.06C284.5,190.48,279.16,201.47,267.83,206.09Z"/><path class="cls-6" d="M120.69,78.31H104.85V62.45a7.62,7.62,0,0,0-7.62-7.6H87.91a7.62,7.62,0,0,0-7.58,7.6V78.31H64.47a7.61,7.61,0,0,0-7.6,7.6v9.3a7.62,7.62,0,0,0,7.6,7.6H80.33v15.84a7.62,7.62,0,0,0,7.58,7.62h9.35a7.62,7.62,0,0,0,7.59-7.62V102.81h15.84a7.58,7.58,0,0,0,7.6-7.6v-9.3A7.62,7.62,0,0,0,120.69,78.31Zm.67,16.9a.67.67,0,0,1-.67.67H97.93v22.77a.67.67,0,0,1-.67.69H87.91a.67.67,0,0,1-.65-.69V95.88H64.47a.68.68,0,0,1-.67-.67v-9.3a.66.66,0,0,1,.67-.67H87.26V62.45a.67.67,0,0,1,.65-.67h9.32a.68.68,0,0,1,.7.67V85.24h22.76a.66.66,0,0,1,.67.67Z"/><path class="cls-2" d="M121.36,85.91v9.3a.67.67,0,0,1-.67.67H97.93v22.77a.67.67,0,0,1-.67.69H87.91a.67.67,0,0,1-.65-.69V95.88H64.47a.68.68,0,0,1-.67-.67v-9.3a.66.66,0,0,1,.67-.67H87.26V62.45a.67.67,0,0,1,.65-.67h9.32a.68.68,0,0,1,.7.67V85.24h22.76A.66.66,0,0,1,121.36,85.91Z"/><path class="cls-7" d="M222,99.18a13.54,13.54,0,1,0,13.53,13.54A13.56,13.56,0,0,0,222,99.18Zm0,20.14a6.61,6.61,0,1,1,6.6-6.6A6.63,6.63,0,0,1,222,119.32Z"/><path class="cls-8" d="M244.19,77a13.53,13.53,0,1,0,13.53,13.53A13.55,13.55,0,0,0,244.19,77Zm0,20.13a6.6,6.6,0,1,1,6.61-6.6A6.63,6.63,0,0,1,244.19,97.15Z"/><path class="cls-9" d="M199.88,77a13.53,13.53,0,1,0,13.51,13.53A13.55,13.55,0,0,0,199.88,77Zm0,20.13a6.6,6.6,0,1,1,6.58-6.6A6.61,6.61,0,0,1,199.88,97.15Z"/><path class="cls-10" d="M222,54.85a13.53,13.53,0,1,0,13.53,13.53A13.55,13.55,0,0,0,222,54.85ZM222,75a6.61,6.61,0,1,1,6.6-6.61A6.64,6.64,0,0,1,222,75Z"/><path class="cls-2" d="M228.63,112.72a6.61,6.61,0,1,1-6.6-6.61A6.62,6.62,0,0,1,228.63,112.72Z"/><path class="cls-2" d="M250.8,90.55a6.61,6.61,0,1,1-6.61-6.6A6.62,6.62,0,0,1,250.8,90.55Z"/><path class="cls-2" d="M206.46,90.55a6.59,6.59,0,1,1-6.58-6.6A6.61,6.61,0,0,1,206.46,90.55Z"/><circle class="cls-2" cx="222.03" cy="68.38" r="6.6"/></g></g></svg>