<svg width="20" height="17" viewBox="0 0 20 17" fill="none" xmlns="http://www.w3.org/2000/svg">
<path d="M0 14.0436L0.931332 13.1122L3.38644 15.5674L2.45511 16.4987L0 14.0436Z" fill="white"/>
<path d="M6.64089 9.26997L15.9109 0H14.0436L5.70728 8.33631L6.64089 9.26997Z" fill="white"/>
<path d="M8.71643 12.5211L6.34468 10.1535L3.97722 7.78601L3.04346 8.71548L7.78267 13.4547L8.71643 12.5211Z" fill="white"/>
<path d="M15.3416 14.2965L17.7967 11.8414L18.4805 12.5252L16.0254 14.9804L15.3416 14.2965Z" fill="white"/>
<path d="M14.3306 13.2871L16.7857 10.832L17.2071 11.2534L14.752 13.7086L14.3306 13.2871Z" fill="white"/>
<path d="M10.5906 9.54483L13.049 7.0871L14.2956 8.33402L11.8371 10.7917L10.5906 9.54483Z" fill="white"/>
<path d="M9.41228 3.45553L5.95682 6.10352e-05H3.50171V2.45517L6.95308 5.91045L9.41228 3.45553Z" fill="white"/>
<path d="M8.16218 10.7914L16.4985 2.45512V0.587646L7.22852 9.85761L8.16218 10.7914Z" fill="white"/>
<path d="M16.6135 15.5694L19.0686 13.1143L20 14.0456L17.5449 16.5007L16.6135 15.5694Z" fill="white"/>
<path d="M11.2886 12.5216L16.0271 7.78143L16.9586 8.71257L12.2201 13.4527L11.2886 12.5216Z" fill="white"/>
<path d="M2.79492 11.2516L3.21639 10.8301L5.6715 13.2853L5.25003 13.7067L2.79492 11.2516Z" fill="white"/>
<path d="M1.521 12.5216L2.20481 11.8378L4.65992 14.2929L3.97611 14.9768L1.521 12.5216Z" fill="white"/>
</svg>
