<svg width="29" height="29" viewBox="0 0 29 29" fill="none" xmlns="http://www.w3.org/2000/svg">
<g clip-path="url(#clip0_330_141)">
<path d="M8 0H21H29V8V21V29H21H8C3.58172 29 0 25.4183 0 21V8C0 3.58172 3.58172 0 8 0Z" fill="url(#paint0_linear_330_141)"/>
<path d="M5 21.0435L5.93133 20.1122L8.38644 22.5673L7.45511 23.4986L5 21.0435Z" fill="white"/>
<path d="M11.641 16.27L20.911 7H19.0437L10.7074 15.3363L11.641 16.27Z" fill="white"/>
<path d="M13.7165 19.5211L11.3447 17.1535L8.97728 14.786L8.04352 15.7155L12.7827 20.4547L13.7165 19.5211Z" fill="white"/>
<path d="M20.3416 21.2965L22.7967 18.8414L23.4805 19.5252L21.0254 21.9804L20.3416 21.2965Z" fill="white"/>
<path d="M19.3304 20.2871L21.7856 17.832L22.207 18.2535L19.7519 20.7086L19.3304 20.2871Z" fill="white"/>
<path d="M15.5905 16.5449L18.049 14.0872L19.2955 15.3341L16.8371 17.7918L15.5905 16.5449Z" fill="white"/>
<path d="M14.4124 10.4556L10.9569 7.00012H8.50183V9.45523L11.9532 12.9105L14.4124 10.4556Z" fill="white"/>
<path d="M13.1621 17.7914L21.4984 9.45512V7.58765L12.2284 16.8576L13.1621 17.7914Z" fill="white"/>
<path d="M21.6135 22.5694L24.0686 20.1143L25 21.0456L22.5449 23.5007L21.6135 22.5694Z" fill="white"/>
<path d="M16.2886 19.5217L21.0271 14.7815L21.9587 15.7126L17.2202 20.4528L16.2886 19.5217Z" fill="white"/>
<path d="M7.79486 18.2517L8.21633 17.8302L10.6714 20.2853L10.25 20.7068L7.79486 18.2517Z" fill="white"/>
<path d="M6.521 19.5216L7.20481 18.8378L9.65992 21.2929L8.97611 21.9767L6.521 19.5216Z" fill="white"/>
</g>
<defs>
<linearGradient id="paint0_linear_330_141" x1="0" y1="14.5" x2="29" y2="14.5" gradientUnits="userSpaceOnUse">
<stop stop-color="#23B6FC"/>
<stop offset="1" stop-color="#1B88BC"/>
</linearGradient>
<clipPath id="clip0_330_141">
<rect width="29" height="29" fill="white"/>
</clipPath>
</defs>
</svg>
