<svg width="29" height="29" viewBox="0 0 29 29" fill="none" xmlns="http://www.w3.org/2000/svg">
<g clip-path="url(#clip0_263_132)">
<path d="M8 0H21H29V8V21V29H21H8C3.58172 29 0 25.4183 0 21V8C0 3.58172 3.58172 0 8 0Z" fill="url(#paint0_linear_263_132)"/>
<path d="M25 15C25 20.5234 20.5234 25 15 25C9.47656 25 5 20.5234 5 15C5 9.47656 9.47656 5 15 5C20.5234 5 25 9.47656 25 15ZM7.01875 16.5273L8.2582 16.7773C8.56523 16.8398 8.8832 16.7422 9.10547 16.5195L9.70703 15.918C10.1562 15.4336 10.9219 15.5898 11.207 16.1641L11.5703 16.8867C11.7227 17.2617 12.1406 17.4648 12.5586 17.4648C13.1523 17.4648 13.5781 16.9297 13.4062 16.3594L13.1758 15.582C12.9922 14.9805 13.4453 14.375 14.0742 14.375H14.1641C14.6523 14.375 15.1758 14.1133 15.4648 13.6797L15.8828 13.0508C16.1016 12.7227 16.0898 12.2891 15.8516 11.9687L15.2227 11.1289C14.8203 10.5937 15.0938 9.82031 15.7461 9.65625L16.4102 9.45703C16.7031 9.41797 16.9414 9.21094 17.0547 8.92969L17.6914 7.33164C16.8516 7.03594 15.9453 6.875 14.9648 6.875C10.5117 6.875 6.83984 10.5117 6.83984 15C6.83984 15.5234 6.92422 16.0352 7.01875 16.5273V16.5273ZM22.5937 16.7344L21.9766 16.9102C21.7148 16.9805 21.4375 16.875 21.293 16.6484L21.2148 16.5273C20.9805 16.1602 20.5742 15.9023 20.1367 15.9023C19.7031 15.9023 19.2617 16.1602 19.0586 16.5273L18.8203 16.8984C18.7656 16.9844 18.6914 17.0586 18.6016 17.0742L17.1523 17.8945C16.4805 18.2891 16.1914 19.1602 16.4883 19.8984L16.7383 20.3828C17.0742 21.1328 17.9375 21.4961 18.6758 21.207L18.8086 21.1367C19.2031 21.0234 19.6406 21.0859 19.9805 21.332L20.0391 21.375C21.4922 20.2227 22.543 18.5859 22.9453 16.707C22.8281 16.6953 22.7109 16.7031 22.5937 16.7344V16.7344ZM11.0977 19.3555L12.3477 19.668C12.6836 19.7539 13.0234 19.5508 13.1055 19.2148C13.1914 18.8789 12.9883 18.5391 12.6523 18.457L11.4023 18.1445C11.0664 18.0586 10.7266 18.2617 10.6445 18.5977C10.5586 18.9336 10.7617 19.2734 11.0977 19.3555ZM14.2383 17.8164C14.1523 18.1523 14.3555 18.4922 14.6914 18.5742C15.0273 18.6602 15.3672 18.457 15.4492 18.1211L15.7617 16.8711C15.8477 16.5352 15.6445 16.1953 15.3086 16.1133C14.9727 16.0273 14.6328 16.2305 14.5508 16.5664L14.2383 17.8164V17.8164ZM17.5664 9.71875L16.9414 10.9688C16.7852 11.2773 16.9102 11.6563 17.2187 11.8086C17.5273 11.9648 17.9062 11.8398 18.0586 11.5312L18.6836 10.2812C18.8398 9.97266 18.7148 9.59375 18.4063 9.44141C18.0977 9.28516 17.7188 9.41016 17.5664 9.71875Z" fill="white"/>
</g>
<defs>
<linearGradient id="paint0_linear_263_132" x1="0" y1="14.5" x2="29" y2="14.5" gradientUnits="userSpaceOnUse">
<stop stop-color="#23B6FC"/>
<stop offset="1" stop-color="#1B88BC"/>
</linearGradient>
<clipPath id="clip0_263_132">
<rect width="29" height="29" fill="white"/>
</clipPath>
</defs>
</svg>
