<svg width="22" height="22" viewBox="0 0 22 22" fill="none" xmlns="http://www.w3.org/2000/svg">
<path d="M22 11C22 17.0758 17.0758 22 11 22C4.92422 22 0 17.0758 0 11C0 4.92422 4.92422 0 11 0C17.0758 0 22 4.92422 22 11ZM2.22063 12.6801L3.58402 12.9551C3.92176 13.0238 4.27152 12.9164 4.51602 12.6715L5.17773 12.0098C5.67188 11.477 6.51406 11.6488 6.82773 12.2805L7.22734 13.0754C7.39492 13.4879 7.85469 13.7113 8.31445 13.7113C8.96758 13.7113 9.43594 13.1227 9.24687 12.4953L8.99336 11.6402C8.79141 10.9785 9.28984 10.3125 9.98164 10.3125H10.0805C10.6176 10.3125 11.1934 10.0246 11.5113 9.54766L11.9711 8.85586C12.2117 8.49492 12.1988 8.01797 11.9367 7.66562L11.2449 6.7418C10.8023 6.15312 11.1031 5.30234 11.8207 5.12187L12.5512 4.90273C12.8734 4.85977 13.1355 4.63203 13.2602 4.32266L13.9605 2.5648C13.0367 2.23953 12.0398 2.0625 10.9613 2.0625C6.06289 2.0625 2.02383 6.06289 2.02383 11C2.02383 11.5758 2.11664 12.1387 2.22063 12.6801V12.6801ZM19.3531 12.9078L18.6742 13.1012C18.3863 13.1785 18.0813 13.0625 17.9223 12.8133L17.8363 12.6801C17.5785 12.2762 17.1316 11.9926 16.6504 11.9926C16.1734 11.9926 15.6879 12.2762 15.4645 12.6801L15.2023 13.0883C15.1422 13.1828 15.0605 13.2645 14.9617 13.2816L13.3676 14.184C12.6285 14.618 12.3105 15.5762 12.6371 16.3883L12.9121 16.9211C13.2816 17.7461 14.2313 18.1457 15.0434 17.8277L15.1895 17.7504C15.6234 17.6258 16.1047 17.6945 16.4785 17.9652L16.543 18.0125C18.1414 16.7449 19.2973 14.9445 19.7398 12.8777C19.6109 12.8648 19.482 12.8734 19.3531 12.9078V12.9078ZM6.70742 15.791L8.08242 16.1348C8.45195 16.2293 8.82578 16.0059 8.91602 15.6363C9.01055 15.2668 8.78711 14.893 8.41758 14.8027L7.04258 14.459C6.67305 14.3645 6.29922 14.5879 6.20898 14.9574C6.11445 15.327 6.33789 15.7008 6.70742 15.791ZM10.1621 14.098C10.0676 14.4676 10.291 14.8414 10.6605 14.9316C11.0301 15.0262 11.4039 14.8027 11.4941 14.4332L11.8379 13.0582C11.9324 12.6887 11.709 12.3148 11.3395 12.2246C10.9699 12.1301 10.5961 12.3535 10.5059 12.723L10.1621 14.098V14.098ZM13.823 5.19063L13.1355 6.56563C12.9637 6.90508 13.1012 7.32188 13.4406 7.48945C13.7801 7.66133 14.1969 7.52383 14.3645 7.18437L15.052 5.80937C15.2238 5.46992 15.0863 5.05312 14.7469 4.88555C14.4074 4.71367 13.9906 4.85117 13.823 5.19063Z" fill="white"/>
</svg>
