<svg width="29" height="29" viewBox="0 0 29 29" fill="none" xmlns="http://www.w3.org/2000/svg">
<g clip-path="url(#clip0_330_195)">
<path d="M8 0H21H29V8V21V29H21H8C3.58172 29 0 25.4183 0 21V8C0 3.58172 3.58172 0 8 0Z" fill="url(#paint0_linear_330_195)"/>
<path d="M13.4898 13.5714H10.6599V16.4286H13.4898V13.5714ZM21.9796 5H7.82993C6.26684 5 5 6.27902 5 7.85714V22.1429C5 23.721 6.26684 25 7.82993 25H21.9796C23.5427 25 24.8095 23.721 24.8095 22.1429V7.85714C24.8095 6.27902 23.5405 5 21.9796 5ZM21.9796 10.7143H19.1497V13.5714H21.9796V16.4286H19.1497V19.2857H21.9796V22.1429H19.1497V19.2857H16.3197V22.1429H13.4898V19.2857H10.6599V22.1429H7.82993V19.2857H10.6599V16.4286H7.82993V13.5714H10.6599V10.7143H7.82993V7.85714H10.6599V10.7143H13.4898V7.85714H16.3197V10.7143H19.1497V7.85714H21.9796V10.7143ZM13.4898 16.4286V19.2857H16.3197V16.4286H13.4898ZM16.3197 13.5714V10.7143H13.4898V13.5714H16.3197ZM16.3197 16.4286H19.1497V13.5714H16.3197V16.4286Z" fill="white"/>
</g>
<defs>
<linearGradient id="paint0_linear_330_195" x1="0" y1="14.5" x2="29" y2="14.5" gradientUnits="userSpaceOnUse">
<stop stop-color="#23B6FC"/>
<stop offset="1" stop-color="#1B88BC"/>
</linearGradient>
<clipPath id="clip0_330_195">
<rect width="29" height="29" fill="white"/>
</clipPath>
</defs>
</svg>
