<svg width="29" height="29" viewBox="0 0 29 29" fill="none" xmlns="http://www.w3.org/2000/svg">
<g clip-path="url(#clip0_330_245)">
<path d="M8 0H21H29V8V21V29H21H8C3.58172 29 0 25.4183 0 21V8C0 3.58172 3.58172 0 8 0Z" fill="url(#paint0_linear_330_245)"/>
<path d="M8.90547 17.683C8.89878 17.8896 8.9519 18.0937 9.05795 18.2709C9.16419 18.4482 9.3192 18.5911 9.50438 18.6827C9.72661 18.7927 9.97846 18.8278 10.2222 18.7826C10.4659 18.7374 10.6883 18.6142 10.8562 18.4317C10.968 18.3087 11.1438 18.2666 11.2992 18.3255C11.4547 18.3846 11.5582 18.5326 11.5604 18.699C11.5906 19.4247 11.489 20.1501 11.2609 20.8397H12.8797C12.6488 20.1506 12.5445 19.4252 12.5722 18.699C12.5704 18.5288 12.6753 18.3756 12.8347 18.3159C12.994 18.2561 13.1738 18.3024 13.2844 18.4317C13.4524 18.6151 13.6757 18.7389 13.9203 18.784C14.1648 18.8294 14.4175 18.7938 14.6401 18.6827C14.8247 18.5936 14.9796 18.4529 15.0858 18.2776C15.192 18.1024 15.2453 17.9 15.239 17.6951L12.0702 13.7372L8.90547 17.683Z" fill="white"/>
<path d="M18.141 9.16034H6V25H18.141V9.16034ZM6.9833 11.3011C6.98222 11.1161 7.05503 10.9381 7.18529 10.8067C7.31573 10.6754 7.49297 10.6013 7.67796 10.601C7.86314 10.6006 8.04074 10.674 8.17155 10.8049C8.30253 10.9357 8.37589 11.1133 8.37553 11.2985C8.37517 11.4835 8.30109 11.6608 8.16975 11.7912C8.0384 11.9215 7.86044 11.9943 7.67541 11.9932C7.49222 11.9921 7.31679 11.9188 7.18723 11.7892C7.05768 11.6597 6.98434 11.4842 6.98326 11.301L6.9833 11.3011ZM14.9598 19.4274C14.4722 19.6502 13.9163 19.6706 13.4138 19.484C13.4154 20.0123 13.5809 20.5268 13.8873 20.9572C14.002 21.0735 14.0356 21.2475 13.9722 21.3982C13.9101 21.5494 13.7632 21.6484 13.5999 21.6491H10.5404C10.3771 21.6484 10.2302 21.5494 10.1681 21.3982C10.1047 21.2475 10.1383 21.0735 10.253 20.9572C10.5594 20.5268 10.7249 20.0123 10.7265 19.484C10.2241 19.6706 9.66815 19.6502 9.18052 19.4274C8.85026 19.2751 8.57167 19.0298 8.3789 18.7214C8.1863 18.4128 8.08784 18.0549 8.09597 17.6912C8.09344 17.6097 8.1003 17.5282 8.1162 17.4484C8.12885 17.3848 8.15667 17.325 8.19714 17.2744L11.7545 12.8227C11.8313 12.727 11.9475 12.6713 12.0701 12.6713C12.1928 12.6713 12.309 12.727 12.3858 12.8227L15.9431 17.2744C15.9836 17.325 16.0114 17.3848 16.0241 17.4484C16.0327 17.525 16.0327 17.6025 16.0241 17.6791C16.0353 18.0422 15.9406 18.401 15.7516 18.7114C15.5626 19.0218 15.2875 19.2706 14.9598 19.4274L14.9598 19.4274ZM16.4653 23.5553H16.4651C16.2801 23.5564 16.1022 23.4836 15.9708 23.3534C15.8395 23.2229 15.7654 23.0457 15.765 22.8605C15.7647 22.6755 15.838 22.4979 15.969 22.3671C16.0998 22.2361 16.2774 22.1628 16.4626 22.1631C16.6476 22.1635 16.8248 22.2376 16.9553 22.3689C17.0855 22.5002 17.1583 22.6782 17.1572 22.8632C17.1572 23.0468 17.0843 23.2228 16.9545 23.3527C16.8248 23.4824 16.6487 23.5554 16.4651 23.5554L16.4653 23.5553Z" fill="white"/>
<path d="M18.9503 10.7828V15.0524L20.8524 12.9196L18.9503 10.7828Z" fill="white"/>
<path d="M24.6161 5H12.4752V8.35086H18.5456C18.653 8.35086 18.7559 8.39349 18.8318 8.46938C18.9077 8.54526 18.9503 8.64824 18.9503 8.75556V9.61754C18.9993 9.63958 19.0432 9.67138 19.0799 9.71058L21.6213 12.5718C21.6878 12.645 21.7252 12.74 21.7265 12.8389V13.0049C21.7263 13.1052 21.6887 13.2018 21.6213 13.2761L19.0799 16.1292C19.0432 16.1664 18.9991 16.1953 18.9503 16.2141V20.8397H24.6161V5ZM14.1508 7.83289C13.9662 7.83289 13.7891 7.75954 13.6585 7.62891C13.5281 7.49847 13.4547 7.32141 13.4547 7.13675C13.4547 6.95211 13.5281 6.77505 13.6585 6.64441C13.7891 6.51396 13.9662 6.44062 14.1508 6.44062C14.3353 6.44062 14.5124 6.51396 14.643 6.64441C14.7734 6.77503 14.8468 6.95208 14.8468 7.13675C14.8468 7.3214 14.7734 7.49845 14.643 7.62891C14.5124 7.75953 14.3353 7.83289 14.1508 7.83289ZM22.9409 19.3948C22.7561 19.3959 22.5785 19.3234 22.4471 19.1933C22.3158 19.0632 22.2415 18.8864 22.2408 18.7015C22.2401 18.5167 22.3129 18.3391 22.4433 18.2079C22.5736 18.077 22.7506 18.0031 22.9355 18.0027C23.1205 18.0023 23.2977 18.0755 23.4287 18.2061C23.5595 18.3366 23.633 18.5138 23.633 18.6988C23.633 18.8827 23.5602 19.0591 23.4305 19.1895C23.301 19.3199 23.1248 19.3936 22.9409 19.3947L22.9409 19.3948Z" fill="white"/>
</g>
<defs>
<linearGradient id="paint0_linear_330_245" x1="0" y1="14.5" x2="29" y2="14.5" gradientUnits="userSpaceOnUse">
<stop stop-color="#23B6FC"/>
<stop offset="1" stop-color="#1B88BC"/>
</linearGradient>
<clipPath id="clip0_330_245">
<rect width="29" height="29" fill="white"/>
</clipPath>
</defs>
</svg>
