<svg width="29" height="29" viewBox="0 0 29 29" fill="none" xmlns="http://www.w3.org/2000/svg">
<g clip-path="url(#clip0_330_187)">
<path d="M8 0H21H29V8V21V29H21H8C3.58172 29 0 25.4183 0 21V8C0 3.58172 3.58172 0 8 0Z" fill="url(#paint0_linear_330_187)"/>
<path d="M20.4656 11.0003C19.2538 11.0003 18.115 11.4583 17.2594 12.2903L15 14.4845L12.7438 12.29C11.8872 11.458 10.7487 11 9.5375 11C7.03469 11.0003 5 12.9759 5 15.4041V16.3071C5 18.7362 7.03469 20.7113 9.53438 20.7113C10.7463 20.7113 11.885 20.2532 12.7406 19.4213L15 17.2313L17.2572 19.4243C18.1138 20.2563 19.2522 20.7143 20.4634 20.7143C22.9656 20.7128 25 18.7368 25 16.3086V15.4057C25 12.9759 22.9656 11.0003 20.4656 11.0003V11.0003ZM11.3281 18.0509C10.8497 18.5156 10.2128 18.7717 9.535 18.7717C8.1375 18.7702 7 17.6654 7 16.3086V15.4057C7 14.0483 8.13781 12.9432 9.53563 12.9432C10.2134 12.9432 10.85 13.1993 11.3288 13.664L13.5859 15.857L11.3281 18.0509V18.0509ZM23 16.3086C23 17.666 21.8622 18.7711 20.4644 18.7711C19.7866 18.7711 19.15 18.515 18.6713 18.0503L16.4141 15.8573L18.6713 13.6643C19.1497 13.1996 19.7866 12.9435 20.4644 12.9435C21.8625 12.9426 23 14.0474 23 15.4041V16.3086Z" fill="white"/>
</g>
<defs>
<linearGradient id="paint0_linear_330_187" x1="0" y1="14.5" x2="29" y2="14.5" gradientUnits="userSpaceOnUse">
<stop stop-color="#23B6FC"/>
<stop offset="1" stop-color="#1B88BC"/>
</linearGradient>
<clipPath id="clip0_330_187">
<rect width="29" height="29" fill="white"/>
</clipPath>
</defs>
</svg>
