<svg width="20" height="20" viewBox="0 0 20 20" fill="none" xmlns="http://www.w3.org/2000/svg">
<path d="M13.6585 1.95122C13.6585 0.878049 14.5366 0 15.6098 0C16.6829 0 17.561 0.878049 17.561 1.95122C17.561 3.02439 16.6829 3.90244 15.6098 3.90244C14.5366 3.90244 13.6585 3.02439 13.6585 1.95122ZM17.561 19.5122V13.6585H20L17.561 6.2439C17.2683 5.46341 16.5854 4.87805 15.7073 4.87805H15.6098C14.7317 4.87805 14.0488 5.46341 13.7561 6.2439L12.878 8.78049C13.9512 9.36585 14.6341 10.439 14.6341 11.8049V19.6098H17.561V19.5122ZM10.2439 9.26829C11.0244 9.26829 11.7073 8.58537 11.7073 7.80488C11.7073 7.02439 11.0244 6.34146 10.2439 6.34146C9.46341 6.34146 8.78049 7.02439 8.78049 7.80488C8.78049 8.58537 9.46341 9.26829 10.2439 9.26829V9.26829ZM3.41463 3.90244C4.48781 3.90244 5.36585 3.02439 5.36585 1.95122C5.36585 0.878049 4.48781 0 3.41463 0C2.34146 0 1.46341 0.878049 1.46341 1.95122C1.46341 3.02439 2.34146 3.90244 3.41463 3.90244ZM5.36585 19.5122V12.6829H6.82927V6.82927C6.82927 5.7561 5.95122 4.87805 4.87805 4.87805H1.95122C0.878049 4.87805 0 5.7561 0 6.82927V12.6829H1.46341V19.5122H5.36585ZM11.7073 19.5122V15.6098H12.6829V11.7073C12.6829 10.9268 12 10.2439 11.2195 10.2439H9.26829C8.48781 10.2439 7.80488 10.9268 7.80488 11.7073V15.6098H8.78049V19.5122H11.7073Z" fill="white"/>
</svg>
