<svg width="29" height="29" viewBox="0 0 29 29" fill="none" xmlns="http://www.w3.org/2000/svg">
<g clip-path="url(#clip0_330_131)">
<path d="M8 0H21H29V8V21V29H21H8C3.58172 29 0 25.4183 0 21V8C0 3.58172 3.58172 0 8 0Z" fill="url(#paint0_linear_330_131)"/>
<path d="M18.6585 6.95122C18.6585 5.87805 19.5366 5 20.6098 5C21.6829 5 22.561 5.87805 22.561 6.95122C22.561 8.02439 21.6829 8.90244 20.6098 8.90244C19.5366 8.90244 18.6585 8.02439 18.6585 6.95122ZM22.561 24.5122V18.6585H25L22.561 11.2439C22.2683 10.4634 21.5854 9.87805 20.7073 9.87805H20.6098C19.7317 9.87805 19.0488 10.4634 18.7561 11.2439L17.878 13.7805C18.9512 14.3659 19.6341 15.439 19.6341 16.8049V24.6098H22.561V24.5122ZM15.2439 14.2683C16.0244 14.2683 16.7073 13.5854 16.7073 12.8049C16.7073 12.0244 16.0244 11.3415 15.2439 11.3415C14.4634 11.3415 13.7805 12.0244 13.7805 12.8049C13.7805 13.5854 14.4634 14.2683 15.2439 14.2683V14.2683ZM8.41463 8.90244C9.48781 8.90244 10.3659 8.02439 10.3659 6.95122C10.3659 5.87805 9.48781 5 8.41463 5C7.34146 5 6.46341 5.87805 6.46341 6.95122C6.46341 8.02439 7.34146 8.90244 8.41463 8.90244ZM10.3659 24.5122V17.6829H11.8293V11.8293C11.8293 10.7561 10.9512 9.87805 9.87805 9.87805H6.95122C5.87805 9.87805 5 10.7561 5 11.8293V17.6829H6.46341V24.5122H10.3659ZM16.7073 24.5122V20.6098H17.6829V16.7073C17.6829 15.9268 17 15.2439 16.2195 15.2439H14.2683C13.4878 15.2439 12.8049 15.9268 12.8049 16.7073V20.6098H13.7805V24.5122H16.7073Z" fill="white"/>
</g>
<defs>
<linearGradient id="paint0_linear_330_131" x1="0" y1="14.5" x2="29" y2="14.5" gradientUnits="userSpaceOnUse">
<stop stop-color="#23B6FC"/>
<stop offset="1" stop-color="#1B88BC"/>
</linearGradient>
<clipPath id="clip0_330_131">
<rect width="29" height="29" fill="white"/>
</clipPath>
</defs>
</svg>
