<svg width="29" height="29" viewBox="0 0 29 29" fill="none" xmlns="http://www.w3.org/2000/svg">
<g clip-path="url(#clip0_330_183)">
<path d="M8 0H21H29V8V21V29H21H8C3.58172 29 0 25.4183 0 21V8C0 3.58172 3.58172 0 8 0Z" fill="url(#paint0_linear_330_183)"/>
<path d="M8.04803 9.09302C8.04803 7.93696 8.99674 7 10.0993 7C11.2595 7 12.1505 7.93696 12.1505 9.09302C12.1505 10.2491 11.2595 11.186 10.0993 11.186C8.99674 11.186 8.04803 10.2491 8.04803 9.09302ZM7.82047 22.6977V20.0814H7.24997C6.89997 20.0814 6.65286 19.7315 6.76343 19.3914L7.7615 16.3368L6.84292 17.573C6.50062 18.0342 5.85735 18.1257 5.40608 17.7758C4.95464 17.4259 4.86618 16.7685 5.20842 16.3107L7.09612 13.7402C7.81534 12.8016 8.93905 12.2326 10.1281 12.2326C11.3204 12.2326 12.4422 12.8016 13.1601 13.7402L15.0479 16.3107C15.3909 16.7685 15.3011 17.4259 14.8492 17.7758C14.4005 18.1257 13.7563 18.0342 13.4134 17.573L12.4967 16.3401L13.4646 19.3914C13.6025 19.7315 13.3557 20.0814 13.0063 20.0814H12.4358V22.6977C12.4358 23.2765 11.9775 23.7442 11.4102 23.7442C10.8429 23.7442 10.3845 23.2765 10.3845 22.6977V20.0814H9.87173V22.6977C9.87173 23.2765 9.4134 23.7442 8.8461 23.7442C8.2788 23.7442 7.82047 23.2765 7.82047 22.6977ZM18.3332 9.09302C18.3332 7.93696 19.253 7 20.3844 7C21.5158 7 22.4357 7.93696 22.4357 9.09302C22.4357 10.2491 21.5158 11.186 20.3844 11.186C19.253 11.186 18.3332 10.2491 18.3332 9.09302ZM19.1024 23.7442C18.5351 23.7442 18.0768 23.2765 18.0768 22.6977V16.8274L17.6633 17.4978C17.362 17.9884 16.7274 18.1355 16.221 17.8281C15.7691 17.5207 15.6249 16.8732 15.9261 16.3565L17.5832 13.7009C18.1473 12.7852 19.1312 12.2031 20.1857 12.2031H20.5831C21.6408 12.2031 22.6216 12.7852 23.1857 13.7009L24.8427 16.3565C25.144 16.8732 24.9997 17.5207 24.519 17.8281C24.0414 18.1355 23.4068 17.9884 23.1055 17.4978L22.6921 16.8274V22.6977C22.6921 23.2765 22.2338 23.7442 21.6665 23.7442C21.0992 23.7442 20.6408 23.2765 20.6408 22.6977V18.5116H20.128V22.6977C20.128 23.2765 19.6697 23.7442 19.1024 23.7442Z" fill="white"/>
</g>
<defs>
<linearGradient id="paint0_linear_330_183" x1="0" y1="14.5" x2="29" y2="14.5" gradientUnits="userSpaceOnUse">
<stop stop-color="#23B6FC"/>
<stop offset="1" stop-color="#1B88BC"/>
</linearGradient>
<clipPath id="clip0_330_183">
<rect width="29" height="29" fill="white"/>
</clipPath>
</defs>
</svg>
