<svg width="29" height="29" viewBox="0 0 29 29" fill="none" xmlns="http://www.w3.org/2000/svg">
<g clip-path="url(#clip0_330_200)">
<path d="M8 0H21H29V8V21V29H21H8C3.58172 29 0 25.4183 0 21V8C0 3.58172 3.58172 0 8 0Z" fill="url(#paint0_linear_330_200)"/>
<path d="M13.5 7.5H11V5H13.5V7.5ZM18.5 5H16V7.5H18.5V5ZM11 17.5H13.5V15H11V17.5ZM23.5 12.5V10H21V12.5H23.5ZM23.5 17.5V15H21V17.5H23.5ZM16 17.5H18.5V15H16V17.5ZM23.5 5H21V7.5H23.5V5ZM16 10V7.5H13.5V10H16ZM8.5 12.5V10H11V7.5H8.5V6.25C8.5 5.5625 7.9375 5 7.25 5C6.5625 5 6 5.5625 6 6.25V23.75C6 24.4375 6.5625 25 7.25 25C7.9375 25 8.5 24.4375 8.5 23.75V15H11V12.5H8.5ZM18.5 15H21V12.5H18.5V15ZM13.5 12.5V15H16V12.5H13.5ZM11 10V12.5H13.5V10H11ZM16 12.5H18.5V10H16V12.5ZM18.5 7.5V10H21V7.5H18.5Z" fill="white"/>
</g>
<defs>
<linearGradient id="paint0_linear_330_200" x1="0" y1="14.5" x2="29" y2="14.5" gradientUnits="userSpaceOnUse">
<stop stop-color="#23B6FC"/>
<stop offset="1" stop-color="#1B88BC"/>
</linearGradient>
<clipPath id="clip0_330_200">
<rect width="29" height="29" fill="white"/>
</clipPath>
</defs>
</svg>
