<svg width="29" height="29" viewBox="0 0 29 29" fill="none" xmlns="http://www.w3.org/2000/svg">
<g clip-path="url(#clip0_330_230)">
<path d="M8 0H21H29V8V21V29H21H8C3.58172 29 0 25.4183 0 21V8C0 3.58172 3.58172 0 8 0Z" fill="url(#paint0_linear_330_230)"/>
<path d="M13.4274 5.02862C13.3267 5.00966 13.2237 5 13.1214 5C12.4355 5 11.8109 5.4239 11.4914 6.10588C11.4377 6.22071 11.3079 6.27812 11.1863 6.24306C9.52736 5.74979 7.95211 7.08942 7.81653 8.87571C7.80723 8.99679 7.7144 9.09463 7.59402 9.11037C6.55431 9.24595 5.77037 10.2293 5.77037 11.3978C5.77037 12.0002 5.97892 12.5706 6.35774 13.0051C6.40317 13.0569 6.42571 13.1253 6.41999 13.1941C6.41462 13.2632 6.38153 13.3267 6.32841 13.3705C5.48435 14.0723 5 15.1421 5 16.3049C5 17.5959 5.62547 18.8075 6.63212 19.4662C6.71905 19.5231 6.76323 19.627 6.74373 19.729C6.56415 20.6662 6.87734 21.6754 7.56096 22.3624C8.15602 22.9606 8.93584 23.2216 9.70119 23.0792C9.71711 23.0764 9.73303 23.0749 9.74841 23.0749C9.86771 23.0749 9.97431 23.1585 9.99935 23.2796C10.2217 24.3568 11.1442 25 12.4671 25C12.7073 25 12.9436 24.9576 13.1695 24.8744C13.749 24.6596 14.1386 24.086 14.1386 23.4473V22.0257C14.1071 21.8519 13.8297 20.5519 12.6765 20.4042C11.9155 21.093 11.0026 21.1742 10.9634 21.1776C10.9565 21.1781 10.9497 21.1783 10.9429 21.1783C10.8103 21.1783 10.6982 21.0765 10.6874 20.9422C10.6764 20.8009 10.7815 20.6777 10.9228 20.6662C10.93 20.6657 11.7306 20.5909 12.3639 19.9968C13.0726 19.3319 12.8028 18.595 12.791 18.5639C12.7408 18.4321 12.8059 18.2836 12.9372 18.2327C13.0679 18.1829 13.2162 18.245 13.2682 18.3763C13.2831 18.4135 13.571 19.1733 13.0597 19.9595C13.5357 20.101 13.8871 20.4053 14.1387 20.7515L14.1389 14.6297C12.703 14.4776 12.1856 13.6334 12.1632 13.5958C12.0912 13.4739 12.1314 13.3166 12.2536 13.2446C12.3752 13.1736 12.5313 13.2125 12.6036 13.3333C12.622 13.3633 13.0169 13.9779 14.1387 14.1144L14.1389 8.89955C14.1293 8.80565 13.9899 7.62393 13.0708 7.30877C12.937 7.26263 12.8654 7.11703 12.9112 6.98289C12.9568 6.8491 13.1024 6.77809 13.2369 6.82334C13.6424 6.96232 13.9318 7.21362 14.1389 7.49355V5.93945C14.1387 5.48997 13.8395 5.10702 13.4274 5.02885V5.02862ZM10.9928 21.9625C11.1341 21.9625 11.2487 22.0764 11.2494 22.2176C11.2494 22.2295 11.2635 22.8432 11.7254 23.1834C12.3765 23.6631 12.9967 23.4406 13.0223 23.4306C13.1548 23.3816 13.3022 23.4476 13.3525 23.5792C13.4026 23.7107 13.3382 23.8579 13.2069 23.909C13.1885 23.9162 12.9595 24.0024 12.6233 24.0024C12.2931 24.0024 11.8597 23.9194 11.4215 23.5962C10.7456 23.0988 10.7368 22.2549 10.7368 22.219C10.7365 22.0775 10.8509 21.9627 10.9928 21.9625L10.9928 21.9625ZM11.2226 17.2262C11.1865 17.2433 10.6402 17.4998 9.96286 17.4998C9.83766 17.4998 9.70781 17.4896 9.57599 17.4691C9.64503 17.6229 9.69958 17.7967 9.7214 17.9904C9.78239 18.5315 9.5835 19.0756 9.13009 19.6082C9.07929 19.6678 9.00721 19.6986 8.93478 19.6986C8.87611 19.6986 8.81691 19.6785 8.76862 19.6376C8.66094 19.5458 8.64789 19.3838 8.73964 19.2761C9.09611 18.8579 9.25512 18.4466 9.21218 18.0532C9.14957 17.4777 8.67059 17.1078 8.66574 17.1042C8.66556 17.104 8.6652 17.1036 8.66502 17.1035C7.49188 16.2698 7.59939 14.9096 7.82064 14.3056C7.86929 14.1725 8.01649 14.104 8.14957 14.153C8.28246 14.2015 8.3506 14.3488 8.30213 14.4814C8.28013 14.5431 7.81852 15.8795 8.9673 16.6896C9.83906 17.3042 10.9893 16.7699 11.0006 16.7642C11.1283 16.7039 11.2814 16.7576 11.3424 16.8853C11.4035 17.0123 11.3499 17.1649 11.2225 17.2262L11.2226 17.2262ZM12.0543 10.9399C12.0255 11.0565 11.9212 11.135 11.8064 11.135C11.7863 11.135 11.7663 11.1327 11.7461 11.1279C11.7119 11.1196 11.1004 10.9642 10.6402 10.3657C10.5656 10.5923 10.4467 10.8381 10.2551 11.0699C9.82588 11.5891 9.16286 11.893 8.28464 11.9728C8.27677 11.9735 8.26872 11.9739 8.26139 11.9739C8.13011 11.9739 8.01832 11.8735 8.00634 11.7405C7.99346 11.5995 8.09756 11.4748 8.23868 11.462C9.14354 11.3802 9.75486 11.0381 10.0552 10.445C10.2646 10.0318 10.2505 9.63117 10.2467 9.5646C9.91657 8.38463 10.6542 7.65042 10.6862 7.61951C10.7878 7.52096 10.9504 7.52328 11.0488 7.62541C11.1473 7.72701 11.1446 7.88923 11.0429 7.98797C11.021 8.00979 10.4821 8.55872 10.7472 9.45356C11.0294 10.4069 11.8347 10.621 11.8688 10.6298C12.0044 10.6643 12.0883 10.8029 12.0543 10.9399L12.0543 10.9399Z" fill="white"/>
<path d="M23.4249 13.3704C23.3716 13.3262 23.3387 13.2627 23.3334 13.1941C23.328 13.125 23.3504 13.0569 23.3956 13.005C23.7746 12.5709 23.983 12.0002 23.983 11.3977C23.983 10.2292 23.1989 9.24589 22.1593 9.11031C22.0388 9.09475 21.9459 8.99673 21.9368 8.87564C21.8012 7.08953 20.2258 5.74986 18.5671 6.243C18.4455 6.27806 18.3158 6.22064 18.2619 6.10582C17.9429 5.4238 17.3179 5.00012 16.632 5.00012C16.5297 5.00012 16.4266 5.00978 16.3256 5.02892C15.9138 5.10708 15.6146 5.49001 15.6146 5.93914V7.49324C15.8217 7.21332 16.1113 6.96201 16.5166 6.82304C16.6502 6.77761 16.7964 6.84862 16.8423 6.98258C16.8883 7.11637 16.8169 7.26232 16.6828 7.30847C15.7636 7.62362 15.6241 8.8057 15.6146 8.89924L15.6148 14.1141C16.7386 13.9776 17.1328 13.3611 17.1499 13.3328C17.2238 13.2132 17.3807 13.1742 17.5014 13.2466C17.622 13.3194 17.6618 13.4745 17.5903 13.5956C17.5679 13.6333 17.0505 14.4774 15.6146 14.6294L15.6148 20.7513C15.8663 20.4048 16.2181 20.1007 16.6939 19.9593C16.1825 19.1728 16.4705 18.4134 16.4853 18.376C16.5375 18.2442 16.6871 18.1796 16.8183 18.2324C16.9494 18.2844 17.0137 18.4323 16.9625 18.5636C16.9496 18.5973 16.6822 19.3325 17.3896 19.9965C18.023 20.5907 18.8232 20.6654 18.8314 20.6659C18.9722 20.6783 19.077 20.8019 19.0655 20.9426C19.0544 21.0764 18.9426 21.178 18.8106 21.178C18.804 21.178 18.7971 21.1778 18.7901 21.1773C18.7509 21.1739 17.838 21.0927 17.077 20.4039C15.9242 20.5516 15.6464 21.8516 15.6149 22.0254V23.4472C15.6149 24.0859 16.0045 24.6597 16.5842 24.8743C16.8099 24.9577 17.046 24.9999 17.2862 24.9999C18.6091 24.9999 19.5314 24.3565 19.754 23.2795C19.7822 23.1428 19.914 23.0559 20.0521 23.0791C20.8167 23.2211 21.5973 22.9604 22.1924 22.3623C22.876 21.6753 23.189 20.6663 23.0096 19.7289C22.9899 19.6268 23.0339 19.5227 23.1212 19.4662C24.1278 18.8074 24.7533 17.5958 24.7533 16.3048C24.7535 15.142 24.2693 14.0723 23.4249 13.3702L23.4249 13.3704ZM18.3319 23.5968C17.8937 23.9196 17.4603 24.0026 17.1302 24.0026C16.7937 24.0026 16.5648 23.9164 16.5465 23.9092C16.4145 23.8579 16.3491 23.7094 16.4006 23.5774C16.4519 23.4454 16.6009 23.3794 16.7324 23.4315C16.7567 23.4399 17.3768 23.6631 18.0275 23.1838C18.4976 22.8377 18.5036 22.2247 18.5036 22.2186C18.5036 22.0772 18.6184 21.9625 18.7601 21.9625H18.7603C18.9017 21.9627 19.0168 22.0777 19.0164 22.2192C19.0166 22.2551 19.0078 23.099 18.3319 23.5968L18.3319 23.5968ZM17.9468 11.1355C17.8311 11.1355 17.7263 11.0564 17.6978 10.9391C17.6648 10.8019 17.7488 10.6637 17.8858 10.6302C17.9238 10.6206 18.7256 10.4048 19.0071 9.45401C19.2722 8.55917 18.7333 8.01008 18.7102 7.987C18.6102 7.88755 18.6086 7.72551 18.7073 7.62499C18.8061 7.52429 18.967 7.52196 19.0681 7.61962C19.1001 7.65056 19.8379 8.38442 19.5075 9.56457C19.5036 9.6295 19.4891 10.0311 19.6991 10.4449C19.9994 11.038 20.6106 11.3798 21.5156 11.4619C21.6566 11.4748 21.7608 11.5993 21.748 11.7404C21.736 11.8737 21.6242 11.9738 21.4929 11.9738C21.4852 11.9738 21.4773 11.9737 21.4696 11.9728C20.5914 11.893 19.9284 11.5895 19.4992 11.0699C19.3076 10.8381 19.1887 10.5927 19.1141 10.3657C18.6538 10.9643 18.0423 11.1196 18.0082 11.1278C17.9871 11.1332 17.9669 11.1355 17.9468 11.1355L17.9468 11.1355ZM21.0883 17.1031C21.0881 17.1033 21.0878 17.1036 21.0876 17.1038C21.0828 17.1077 20.6038 17.4771 20.5412 18.0528C20.4984 18.446 20.6576 18.8575 21.0137 19.2757C21.1054 19.3834 21.0927 19.5454 20.9847 19.6372C20.9364 19.6781 20.8776 19.6982 20.8186 19.6982C20.7459 19.6982 20.6739 19.6676 20.6232 19.6078C20.1697 19.0756 19.9709 18.5315 20.0319 17.9901C20.0538 17.7965 20.1081 17.6229 20.1773 17.4687C20.0455 17.4894 19.9155 17.4994 19.7905 17.4994C19.1128 17.4996 18.5669 17.2429 18.5307 17.2258C18.403 17.1644 18.3492 17.0111 18.4107 16.8838C18.4723 16.7559 18.6255 16.7024 18.7527 16.7636C18.7638 16.7688 19.914 17.303 20.7856 16.6887C21.9441 15.8714 21.4562 14.4946 21.451 14.4806C21.4023 14.3477 21.4705 14.2003 21.6035 14.1519C21.7368 14.1029 21.8838 14.1714 21.9325 14.3044C22.1539 14.9092 22.2612 16.2694 21.0882 17.1031L21.0883 17.1031Z" fill="white"/>
</g>
<defs>
<linearGradient id="paint0_linear_330_230" x1="0" y1="14.5" x2="29" y2="14.5" gradientUnits="userSpaceOnUse">
<stop stop-color="#23B6FC"/>
<stop offset="1" stop-color="#1B88BC"/>
</linearGradient>
<clipPath id="clip0_330_230">
<rect width="29" height="29" fill="white"/>
</clipPath>
</defs>
</svg>
