<svg width="29" height="29" viewBox="0 0 29 29" fill="none" xmlns="http://www.w3.org/2000/svg">
<g clip-path="url(#clip0_330_216)">
<path d="M8 0H21H29V8V21V29H21H8C3.58172 29 0 25.4183 0 21V8C0 3.58172 3.58172 0 8 0Z" fill="url(#paint0_linear_330_216)"/>
<path d="M24.5358 10.7536C23.6939 8.37497 23.4833 6.27005 20.6417 7.25934C20.4101 7.34347 20.1995 7.42775 20.0313 7.53303H15.1899C15.0005 7.42775 14.8111 7.34362 14.5795 7.25934C11.7378 6.249 11.5484 8.35396 10.6854 10.7536C10.4538 11.3851 10.3275 12.0167 10.2644 12.5849H14.5796C14.748 12.5007 14.9164 12.4375 15.1058 12.3743C15.6952 12.1638 16.2214 12.0586 16.6845 12.0586C17.2318 12.0586 17.6739 12.1849 18.0317 12.3955H19.842V12.4165C20.6839 14.7951 22.431 16.3527 23.7151 15.9107C25.0201 15.4476 25.3991 13.1323 24.536 10.7536L24.5358 10.7536ZM15.3372 10.4168C15.3372 10.4799 15.295 10.5431 15.2319 10.5431H14.39V11.385C14.39 11.4481 14.3268 11.5112 14.2637 11.5112H13.6112C13.5481 11.5112 13.5059 11.4691 13.5059 11.385V10.5431H12.664C12.6009 10.5431 12.5377 10.4799 12.5377 10.4168V9.76428C12.5377 9.70114 12.6009 9.659 12.664 9.659H13.5059V8.81709C13.5059 8.75396 13.5481 8.69082 13.6112 8.69082H14.2637C14.3268 8.69082 14.39 8.75396 14.39 8.81709V9.659H15.2319C15.295 9.659 15.3372 9.70114 15.3372 9.76428V10.4168ZM21.3784 8.43808C21.6941 8.43808 21.9256 8.69063 21.9256 8.98533C21.9256 9.28003 21.6731 9.53258 21.3784 9.53258C21.0627 9.53258 20.8311 9.28003 20.8311 8.98533C20.8311 8.69079 21.0837 8.43808 21.3784 8.43808ZM20.2838 10.6483C19.9681 10.6483 19.7365 10.3958 19.7365 10.1011C19.7365 9.78539 19.9891 9.55382 20.2838 9.55382C20.5785 9.55382 20.831 9.80637 20.831 10.1011C20.8312 10.3958 20.5996 10.6483 20.2838 10.6483ZM21.3784 11.764C21.0627 11.764 20.8311 11.5114 20.8311 11.1956C20.8311 10.8799 21.0837 10.6483 21.3784 10.6483C21.6941 10.6483 21.9256 10.9009 21.9256 11.1956C21.9468 11.5114 21.6941 11.764 21.3784 11.764ZM22.473 10.6483C22.1573 10.6483 21.9258 10.3958 21.9258 10.1011C21.9258 9.78539 22.1783 9.55382 22.473 9.55382C22.7677 9.55382 23.0203 9.80637 23.0203 10.1011C23.0414 10.3958 22.7887 10.6483 22.473 10.6483Z" fill="white"/>
<path d="M15.4213 13.2585C15.1898 13.3426 14.9792 13.4269 14.811 13.5322H9.96957C9.78016 13.4269 9.59075 13.3428 9.35921 13.2585C6.49647 12.2692 6.30691 14.3741 5.46504 16.7527C4.60197 19.1312 4.98094 21.4468 6.26496 21.9099C7.57 22.373 9.29598 20.8153 10.1591 18.4156V18.3946H14.6006V18.4156C15.4425 20.7943 17.1896 22.3519 18.4737 21.9099C19.7787 21.4468 20.1366 19.1524 19.2946 16.7527C18.4527 14.3741 18.2633 12.2692 15.4215 13.2585H15.4213ZM10.0958 16.4159C10.0958 16.4791 10.0537 16.5422 9.96952 16.5422H9.12761V17.3841C9.12761 17.4472 9.08547 17.5104 9.00134 17.5104H8.34884C8.2857 17.5104 8.22256 17.4682 8.22256 17.3841V16.5422H7.38065C7.31752 16.5422 7.25438 16.5001 7.25438 16.4159L7.25423 15.7634C7.25423 15.7003 7.29637 15.6371 7.38051 15.6371H8.22241V14.7952C8.22241 14.7321 8.26456 14.669 8.34869 14.669H9.00119C9.06433 14.669 9.12746 14.7111 9.12746 14.7952V15.6371H9.96937C10.0325 15.6371 10.0956 15.6793 10.0956 15.7634L10.0958 16.4159ZM16.137 14.4372C16.4527 14.4372 16.6843 14.6898 16.6843 14.9845C16.6844 15.2792 16.4529 15.5528 16.137 15.5528C15.8213 15.5528 15.5898 15.3003 15.5898 15.0056C15.5898 14.7109 15.8423 14.4372 16.137 14.4372ZM15.0426 16.6475C14.7269 16.6475 14.4953 16.3949 14.4953 16.1002C14.4953 15.7845 14.7479 15.553 15.0426 15.553C15.3582 15.553 15.5898 15.8055 15.5898 16.1002C15.6108 16.3948 15.3583 16.6475 15.0426 16.6475ZM16.137 17.7419C15.8213 17.7419 15.5898 17.4894 15.5898 17.1947C15.5898 16.879 15.8423 16.6474 16.137 16.6474C16.4527 16.6474 16.6843 16.9 16.6843 17.1947C16.7054 17.4894 16.4529 17.7419 16.137 17.7419ZM17.2528 16.6475C16.9371 16.6475 16.7055 16.3949 16.7055 16.1002C16.7055 15.7845 16.9581 15.553 17.2528 15.553C17.5685 15.553 17.8 15.8055 17.8 16.1002C17.8 16.3948 17.5475 16.6475 17.2528 16.6475Z" fill="white"/>
</g>
<defs>
<linearGradient id="paint0_linear_330_216" x1="0" y1="14.5" x2="29" y2="14.5" gradientUnits="userSpaceOnUse">
<stop stop-color="#23B6FC"/>
<stop offset="1" stop-color="#1B88BC"/>
</linearGradient>
<clipPath id="clip0_330_216">
<rect width="29" height="29" fill="white"/>
</clipPath>
</defs>
</svg>
