<svg width="29" height="29" viewBox="0 0 29 29" fill="none" xmlns="http://www.w3.org/2000/svg">
<g clip-path="url(#clip0_330_206)">
<path d="M8 0H21H29V8V21V29H21H8C3.58172 29 0 25.4183 0 21V8C0 3.58172 3.58172 0 8 0Z" fill="url(#paint0_linear_330_206)"/>
<path d="M19.4958 9.14165C20.6394 9.14165 21.5666 8.21451 21.5666 7.07083C21.5666 5.92714 20.6394 5 19.4958 5C18.3521 5 17.4249 5.92714 17.4249 7.07083C17.4249 8.21451 18.3521 9.14165 19.4958 9.14165Z" fill="white"/>
<path d="M18.2295 14.2866C18.4672 14.6408 18.8081 14.9133 19.206 15.067C19.6039 15.2208 20.0394 15.2483 20.4535 15.146L23.887 14.2876L23.3869 12.2789L19.9534 13.1373L18.5256 10.9971C18.2205 10.54 17.7471 10.2222 17.2086 10.1129L13.2264 9.31559C12.7809 9.22619 12.3183 9.28594 11.9102 9.48561C11.502 9.68529 11.171 10.0138 10.9681 10.4204L9.2514 13.8538L11.1038 14.7805L12.8205 11.346L14.8571 11.754L9.59102 20.5312H5V22.602H9.59102C10.3137 22.602 10.994 22.2168 11.3668 21.5966L13.3527 18.2874L18.7047 19.3581L20.585 25L22.5482 24.3446L20.6689 18.7037C20.5529 18.3574 20.3477 18.0477 20.074 17.806C19.8002 17.5642 19.4676 17.3988 19.1096 17.3266L15.963 16.6981L17.7977 13.6395L18.2295 14.2866V14.2866Z" fill="white"/>
</g>
<defs>
<linearGradient id="paint0_linear_330_206" x1="0" y1="14.5" x2="29" y2="14.5" gradientUnits="userSpaceOnUse">
<stop stop-color="#23B6FC"/>
<stop offset="1" stop-color="#1B88BC"/>
</linearGradient>
<clipPath id="clip0_330_206">
<rect width="29" height="29" fill="white"/>
</clipPath>
</defs>
</svg>
