<svg width="20" height="20" viewBox="0 0 20 20" fill="none" xmlns="http://www.w3.org/2000/svg">
<path d="M17.619 9.52381H16.1905V5.71429C16.1905 5.20911 15.9898 4.72463 15.6326 4.36742C15.2754 4.0102 14.7909 3.80952 14.2857 3.80952H10.4762V2.38095C10.4762 1.74948 10.2253 1.14388 9.77883 0.697365C9.33231 0.25085 8.72671 0 8.09524 0C7.46377 0 6.85817 0.25085 6.41165 0.697365C5.96514 1.14388 5.71429 1.74948 5.71429 2.38095V3.80952H1.90476C1.39959 3.80952 0.915104 4.0102 0.557892 4.36742C0.20068 4.72463 0 5.20911 0 5.71429V9.33333H1.42857C2.85714 9.33333 4 10.4762 4 11.9048C4 13.3333 2.85714 14.4762 1.42857 14.4762H0V18.0952C0 18.6004 0.20068 19.0849 0.557892 19.4421C0.915104 19.7993 1.39959 20 1.90476 20H5.52381V18.5714C5.52381 17.1429 6.66667 16 8.09524 16C9.52381 16 10.6667 17.1429 10.6667 18.5714V20H14.2857C14.7909 20 15.2754 19.7993 15.6326 19.4421C15.9898 19.0849 16.1905 18.6004 16.1905 18.0952V14.2857H17.619C18.2505 14.2857 18.8561 14.0349 19.3026 13.5883C19.7492 13.1418 20 12.5362 20 11.9048C20 11.2733 19.7492 10.6677 19.3026 10.2212C18.8561 9.77466 18.2505 9.52381 17.619 9.52381V9.52381Z" fill="white"/>
</svg>
