<svg width="29" height="29" viewBox="0 0 29 29" fill="none" xmlns="http://www.w3.org/2000/svg">
<g clip-path="url(#clip0_305_166)">
<path d="M8 0H21H29V8V21V29H21H8C3.58172 29 0 25.4183 0 21V8C0 3.58172 3.58172 0 8 0Z" fill="url(#paint0_linear_305_166)"/>
<path d="M16.8736 5C12.3894 5 8.74725 8.64209 8.74725 13.1264C8.74725 17.6106 12.3893 21.2527 16.8736 21.2527C21.3579 21.2527 25 17.6106 25 13.1264C25 8.64209 21.3579 5 16.8736 5V5ZM17.3368 8.26321L19.2946 6.85268C19.3367 6.83168 19.3577 6.78953 19.3787 6.76853C20.4735 7.18955 21.4209 7.88433 22.1578 8.78967C22.1368 8.83182 22.1156 8.85282 22.0946 8.89496L21.3577 11.1897L19.1471 11.9054L17.3368 10.5789L17.3368 8.26321ZM14.3473 6.76839C14.3683 6.78939 14.3894 6.83154 14.4314 6.85254L16.3893 8.26307V10.5789L14.5789 11.8843L12.3683 11.1686L11.6314 8.87372C11.6104 8.83157 11.5892 8.81057 11.5682 8.76842C12.3052 7.88421 13.2735 7.18947 14.3473 6.76845L14.3473 6.76839ZM11.2104 16.7895C11.1682 16.7895 11.1262 16.8105 11.0841 16.8105C10.4736 15.8632 10.0946 14.7474 10.0315 13.5473C10.0736 13.5263 10.0946 13.5263 10.1367 13.4841L12.0946 12.0736L14.263 12.7894L14.9578 14.9578L13.6314 16.7893L11.2104 16.7895ZM18.5999 19.6527C18.5788 19.6947 18.5788 19.7158 18.5788 19.7578C18.0314 19.9053 17.463 19.9894 16.8735 19.9894C16.284 19.9894 15.7156 19.9053 15.1683 19.7578C15.1683 19.7157 15.1683 19.6737 15.1473 19.6525L14.3894 17.3578L15.7157 15.5473H18.0105L19.3368 17.3578L18.5999 19.6527ZM22.5157 16.7895H20.1155L18.7682 14.9579L19.4629 12.7895L21.6313 12.0738L23.5892 13.4843C23.6313 13.5053 23.6523 13.5264 23.6945 13.5264C23.6313 14.7265 23.2523 15.8423 22.6418 16.7896C22.5998 16.8105 22.5577 16.7895 22.5157 16.7895L22.5157 16.7895Z" fill="white"/>
<path d="M10.0526 19.9475C9.79997 19.6949 9.39996 19.6949 9.14736 19.9475L7.27367 21.8212C7.02108 22.0738 7.02108 22.4738 7.27367 22.7264C7.39996 22.8527 7.5684 22.9158 7.71585 22.9158C7.86329 22.9158 8.05273 22.8527 8.15803 22.7264L10.0317 20.8527C10.3053 20.6001 10.3053 20.2001 10.0526 19.9475H10.0526Z" fill="white"/>
<path d="M7.96833 17.2527C7.71574 17.0001 7.31573 17.0001 7.06313 17.2527L5.18944 19.1264C4.93685 19.379 4.93685 19.779 5.18944 20.0316C5.31573 20.1579 5.48417 20.221 5.63162 20.221C5.77906 20.221 5.9685 20.1579 6.07381 20.0316L7.9475 18.1579C8.22094 17.9053 8.22094 17.5053 7.96835 17.2527H7.96833Z" fill="white"/>
<path d="M11.8421 22.0317L9.96837 23.9054C9.71578 24.158 9.71578 24.558 9.96837 24.8106C10.0947 24.9369 10.2631 25.0001 10.4106 25.0001C10.558 25.0001 10.7474 24.9369 10.8527 24.8106L12.7264 22.9369C12.979 22.6843 12.979 22.2843 12.7264 22.0317C12.4947 21.7791 12.0947 21.7791 11.8421 22.0317H11.8421Z" fill="white"/>
</g>
<defs>
<linearGradient id="paint0_linear_305_166" x1="0" y1="14.5" x2="29" y2="14.5" gradientUnits="userSpaceOnUse">
<stop stop-color="#23B6FC"/>
<stop offset="1" stop-color="#1B88BC"/>
</linearGradient>
<clipPath id="clip0_305_166">
<rect width="29" height="29" fill="white"/>
</clipPath>
</defs>
</svg>
