<svg width="29" height="29" viewBox="0 0 29 29" fill="none" xmlns="http://www.w3.org/2000/svg">
<g clip-path="url(#clip0_305_154)">
<path d="M8 0H21H29V8V21V29H21H8C3.58172 29 0 25.4183 0 21V8C0 3.58172 3.58172 0 8 0Z" fill="url(#paint0_linear_305_154)"/>
<path d="M10.0147 8.63369L12.2674 10.8766L10.8766 12.2674L8.63369 10.0147L6.39079 12.2674L5 10.8766L7.25269 8.63369L5 6.39079L6.39079 5L8.63369 7.25269L10.8766 5L12.2674 6.39079L10.0147 8.63369ZM25 19.1234L23.6092 17.7326L21.3663 19.9853L19.1234 17.7326L17.7326 19.1234L19.9853 21.3663L17.7326 23.6092L19.1234 25L21.3663 22.7473L23.6092 25L25 23.6092L22.7473 21.3663L25 19.1234ZM23.2272 9.93634L20.0735 14.0206L18.526 12.7767L19.6719 11.3075C18.2103 11.6045 16.8468 12.2642 15.7069 13.2261C14.567 14.188 13.6874 15.4211 13.1489 16.812C14.0014 17.4267 14.6061 18.3259 14.854 19.3472C15.1019 20.3686 14.9767 21.445 14.5009 22.3821C14.025 23.3193 13.23 24.0556 12.2591 24.4581C11.2882 24.8607 10.2055 24.9031 9.2061 24.5776C8.20673 24.2522 7.35657 23.5803 6.80896 22.6832C6.26136 21.7861 6.05237 20.7228 6.21968 19.6852C6.387 18.6476 6.91961 17.7039 7.72144 17.0244C8.52328 16.3449 9.54154 15.9743 10.5926 15.9794C10.8492 15.9805 11.105 16.0067 11.3565 16.0578C12.0351 14.3738 13.1186 12.8832 14.5109 11.718C15.9033 10.5528 17.5616 9.74912 19.3389 9.37806L17.9383 8.32027L19.1822 6.77277L23.2272 9.93634ZM13.0411 20.3869C13.0411 19.9026 12.8975 19.4292 12.6285 19.0265C12.3594 18.6239 11.977 18.31 11.5296 18.1247C11.0822 17.9394 10.5898 17.8909 10.1149 17.9853C9.63988 18.0798 9.20359 18.313 8.86115 18.6555C8.51871 18.9979 8.2855 19.4342 8.19103 19.9092C8.09655 20.3842 8.14504 20.8765 8.33036 21.3239C8.51569 21.7713 8.82953 22.1537 9.2322 22.4228C9.63487 22.6919 10.1083 22.8355 10.5926 22.8355C11.242 22.8355 11.8648 22.5775 12.324 22.1183C12.7832 21.6591 13.0411 21.0363 13.0411 20.3869Z" fill="white"/>
</g>
<defs>
<linearGradient id="paint0_linear_305_154" x1="0" y1="14.5" x2="29" y2="14.5" gradientUnits="userSpaceOnUse">
<stop stop-color="#23B6FC"/>
<stop offset="1" stop-color="#1B88BC"/>
</linearGradient>
<clipPath id="clip0_305_154">
<rect width="29" height="29" fill="white"/>
</clipPath>
</defs>
</svg>
